<svg xmlns="http://www.w3.org/2000/svg" viewBox="0 0 2252 1261" fill="none" aria-hidden="true">
  <!-- White letterforms only — no plate/background (starfield shows through) -->
  <path fill="#F8FAFC" d="
M1762.905640,834.866089 
	C1729.808228,836.058716 1698.361450,831.395752 1668.987305,816.294067 
	C1648.520020,805.771545 1631.889404,791.158569 1620.342285,771.028320 
	C1619.021240,768.725281 1618.732910,767.177917 1620.667236,764.944031 
	C1627.205322,757.393250 1633.446655,749.586243 1639.849365,741.917175 
	C1643.453491,737.600342 1647.436035,737.821289 1650.482178,742.629395 
	C1661.490479,760.005676 1675.681519,773.944031 1694.110840,783.348999 
	C1708.226440,790.552368 1723.291748,794.593079 1739.007568,795.793091 
	C1754.485596,796.975037 1769.883911,796.279053 1785.217529,793.098328 
	C1816.055176,786.701416 1835.821289,761.224060 1834.391235,729.627441 
	C1833.578369,711.668213 1828.981567,695.407593 1813.418701,684.927490 
	C1804.554810,678.958618 1794.777832,673.603333 1784.642700,670.421448 
	C1764.364624,664.055115 1743.568848,659.330261 1722.965942,654.007690 
	C1702.716064,648.776367 1683.125854,642.042114 1665.934692,629.660156 
	C1645.021606,614.597351 1633.442261,594.010071 1630.118286,568.669617 
	C1627.334595,547.447937 1630.217041,527.195435 1641.157349,508.439758 
	C1649.452515,494.218506 1661.369873,483.882416 1675.645874,476.047882 
	C1692.732056,466.671112 1711.248291,462.015625 1730.484863,460.610992 
	C1758.588745,458.558838 1786.386597,460.259644 1813.267578,469.821533 
	C1833.417114,476.989014 1850.121826,488.807709 1863.150757,506.426605 
	C1856.576294,515.243469 1850.021362,524.195740 1843.267822,532.995605 
	C1841.165283,535.734863 1836.659424,535.169739 1833.869507,532.049255 
	C1822.460693,519.288086 1809.080566,509.522583 1792.675049,504.046143 
	C1771.708618,497.047150 1750.272705,496.107056 1728.526611,498.494385 
	C1717.328735,499.723724 1706.625854,502.638428 1696.852417,508.383179 
	C1679.635010,518.503235 1671.658447,533.772339 1671.864136,553.574890 
	C1672.142700,580.405396 1685.053223,598.792847 1712.389893,607.605103 
	C1733.705688,614.476501 1755.669067,619.358032 1777.389404,624.949829 
	C1795.800659,629.689575 1813.892944,635.153931 1830.537109,644.682434 
	C1856.071167,659.300293 1872.034790,680.779968 1876.685913,709.932861 
	C1881.282349,738.743774 1876.883911,766.034790 1860.191040,790.543701 
	C1850.374634,804.956238 1836.659180,814.774963 1821.018799,822.115540 
	C1802.756104,830.686829 1783.294556,833.742065 1762.905640,834.866089 
z"/>
  <path fill="#F8FAFC" d="
M1274.523682,803.426636 
	C1309.312256,703.750000 1343.937500,604.432922 1378.556763,505.113770 
	C1383.180908,491.847351 1387.775269,478.570526 1392.487793,464.998230 
	C1411.646606,464.998230 1430.793213,464.940216 1449.936890,465.149475 
	C1451.029175,465.161377 1452.612061,467.177521 1453.101685,468.565979 
	C1464.719116,501.499817 1476.232788,534.470276 1487.735352,567.444519 
	C1517.772949,653.552490 1547.797241,739.665100 1577.818604,825.778748 
	C1578.250122,827.016418 1578.576416,828.290771 1579.026367,829.797607 
	C1563.687622,829.797607 1548.589478,829.797607 1533.188599,829.797607 
	C1526.157959,808.922058 1519.100952,787.929688 1512.018311,766.946045 
	C1483.533691,682.554504 1455.046753,598.163818 1426.520508,513.786377 
	C1425.792358,511.632690 1425.769287,509.079010 1422.005005,509.005585 
	C1417.977295,508.927002 1417.917236,511.672119 1417.124878,514.000244 
	C1399.540649,565.667480 1381.952759,617.333557 1364.464111,669.033142 
	C1354.268555,699.172974 1344.269165,729.378967 1334.133911,759.539185 
	C1326.709717,781.632141 1319.164673,803.684570 1311.791992,825.794556 
	C1310.774780,828.845032 1309.533936,830.199280 1305.935791,830.119629 
	C1292.620117,829.824890 1279.294067,830.002380 1265.318115,830.002380 
	C1268.424805,820.993103 1271.391724,812.389343 1274.523682,803.426636 
z"/>
  <path fill="#F8FAFC" d="
M600.955872,598.987671 
	C627.781738,676.006653 654.521240,752.641052 681.514343,830.002319 
	C671.889099,830.002319 662.831299,830.002258 653.773499,830.002258 
	C649.274292,830.002258 644.748169,829.699097 640.284180,830.095581 
	C636.529297,830.429077 635.193787,828.838013 634.076843,825.538391 
	C618.161438,778.523132 602.008850,731.588135 586.125000,684.562317 
	C566.962952,627.830933 548.018799,571.025940 528.878845,514.287048 
	C528.239807,512.392639 526.842163,510.037659 525.195496,509.358612 
	C522.348938,508.184814 520.754578,509.900848 519.694763,513.056030 
	C503.218567,562.107361 486.541107,611.091125 469.960846,660.107544 
	C450.848114,716.610718 431.785217,773.130798 412.646393,829.804321 
	C397.805359,829.804321 383.019043,829.804321 367.843018,829.804321 
	C410.233673,708.209045 452.554932,586.812805 495.022247,464.997620 
	C505.516876,464.997620 515.956970,464.997620 526.397095,464.997620 
	C534.229065,464.997620 542.072327,465.245117 549.887817,464.886200 
	C553.437500,464.723145 554.760620,466.058472 555.824219,469.137665 
	C570.524963,511.700104 585.327698,554.227234 600.110901,596.761230 
	C600.328552,597.387390 600.615051,597.989624 600.955872,598.987671 
z"/>
  <path fill="#F8FAFC" d="
M699.000061,464.996094 
	C782.274109,464.996094 865.048218,464.996094 947.997070,464.996094 
	C947.997070,477.222778 947.997070,489.001923 947.997070,501.339355 
	C910.098755,501.339355 872.244263,501.339355 833.995728,501.339355 
	C833.995728,611.135864 833.995728,720.375854 833.995728,829.809326 
	C819.662537,829.809326 805.725708,829.809326 791.312012,829.809326 
	C791.312012,720.548279 791.312012,611.329346 791.312012,501.670654 
	C753.111023,501.670654 715.381348,501.670654 677.324951,501.670654 
	C677.324951,489.349457 677.324951,477.460846 677.324951,464.996094 
	C684.301819,464.996094 691.400940,464.996094 699.000061,464.996094 
z"/>
  <path fill="#F8FAFC" d="
M1059.837769,634.000122 
	C1059.837769,687.629272 1059.837769,740.758362 1059.837769,794.407959 
	C1118.369141,794.407959 1176.580933,794.407959 1234.981201,794.407959 
	C1234.981201,806.392883 1234.981201,817.860046 1234.981201,829.665771 
	C1162.531860,829.665771 1089.979492,829.665771 1017.127075,829.665771 
	C1017.127075,708.374512 1017.127075,586.991028 1017.127075,465.301880 
	C1031.055664,465.301880 1045.137207,465.301880 1059.837769,465.301880 
	C1059.837769,521.328369 1059.837769,577.414246 1059.837769,634.000122 
z"/>
</svg>
