<svg version="1.1" id="Layer_1" xmlns="http://www.w3.org/2000/svg" xmlns:xlink="http://www.w3.org/1999/xlink" x="0px" y="0px"
	 width="100%" viewBox="0 0 1024 1024" enable-background="new 0 0 1024 1024" xml:space="preserve">
<path fill="#000000" opacity="1.000000" stroke="none" 
	d="
M742.850708,491.093750 
	C777.784912,513.521484 812.376404,535.814453 847.104004,557.893188 
	C851.498413,560.687012 853.685730,563.667358 853.480591,569.103638 
	C853.072449,579.920044 853.395081,590.762817 853.350342,601.594482 
	C853.321777,608.529358 850.700867,610.424866 843.864441,608.595032 
	C765.900513,587.728088 687.935486,566.864929 609.974365,545.987305 
	C597.115173,542.543640 584.276245,539.023987 571.419189,535.572388 
	C570.001221,535.191711 568.524658,535.029297 566.938660,534.740845 
	C565.424927,537.496704 565.537354,540.394592 565.419556,543.119934 
	C564.614258,561.751038 564.036377,580.391968 563.260498,599.024536 
	C561.687866,636.786377 560.309387,674.559998 558.241760,712.295410 
	C557.659790,722.917236 559.928406,730.853149 567.824829,738.766968 
	C592.296021,763.292358 615.765869,788.816162 639.677246,813.902039 
	C642.127197,816.472412 643.413513,819.243042 643.283081,822.839233 
	C643.114014,827.499084 643.313171,832.171143 643.226379,836.835510 
	C643.092651,844.023315 639.409363,846.543884 632.869751,843.691101 
	C603.253113,830.771484 573.683655,817.743713 544.078003,804.798950 
	C541.691772,803.755554 539.468018,802.117615 536.371094,802.212524 
	C534.996643,806.967651 533.824158,811.786987 532.200989,816.449402 
	C530.102234,822.478088 526.993713,827.984314 522.348572,832.489746 
	C516.120300,838.530762 509.739685,838.428589 503.606232,832.046326 
	C497.435333,825.625183 493.927094,817.773499 491.781311,809.238281 
	C491.342590,807.493225 490.871429,805.756287 490.244354,803.363525 
	C481.296631,807.237183 472.773163,810.888977 464.280609,814.611267 
	C442.314362,824.239197 420.378998,833.937683 398.393555,843.521362 
	C391.426544,846.558411 387.875641,844.186096 387.738983,836.689819 
	C387.394501,817.792297 387.393188,817.791077 400.227264,804.302979 
	C422.049225,781.368652 443.855438,758.419312 465.726318,735.531799 
	C467.688080,733.478821 468.810211,731.451416 468.611481,728.481018 
	C467.955750,718.681091 467.416504,708.870422 467.029266,699.056091 
	C465.847534,669.104126 464.797119,639.147095 463.619507,609.194946 
	C462.690643,585.569458 461.653320,561.948120 460.643524,538.325867 
	C460.602264,537.360779 460.350525,536.404663 460.210480,535.529236 
	C457.966461,534.413757 456.082855,535.372620 454.215271,535.872681 
	C386.851807,553.907532 319.496704,571.973450 252.134003,590.011108 
	C228.984711,596.209778 205.822159,602.359009 182.657837,608.501343 
	C175.290512,610.454834 172.760223,608.515991 172.723282,600.858276 
	C172.671036,590.026611 172.858429,579.191406 172.632431,568.364197 
	C172.542023,564.031799 174.082581,561.237122 177.713608,558.915649 
	C212.666550,536.569519 247.540939,514.100464 282.451172,491.687408 
	C338.251373,455.862671 394.049347,420.034363 449.901489,384.290741 
	C452.975494,382.323425 453.942017,380.014191 453.894135,376.472382 
	C453.526886,349.316406 453.344574,322.147919 454.861877,295.024384 
	C456.373016,268.011047 459.788086,241.316574 471.447754,216.408066 
	C475.498657,207.754120 480.433838,199.690231 487.243591,192.881805 
	C504.135559,175.993225 525.160339,176.697296 540.931580,194.780167 
	C554.125244,209.907654 560.816895,228.121674 565.236084,247.291428 
	C570.419861,269.777985 571.739563,292.718781 572.170044,315.683594 
	C572.554138,336.173798 572.340576,356.676727 572.224121,377.173126 
	C572.205933,380.374420 573.177307,382.356934 575.903320,384.100525 
	C631.483398,419.649170 687.011414,455.279236 742.850708,491.093750 
z"/>
</svg>