<svg version="1.1" id="Layer_1" xmlns="http://www.w3.org/2000/svg" xmlns:xlink="http://www.w3.org/1999/xlink" x="0px" y="0px"
	 width="100%" viewBox="0 0 784 624" enable-background="new 0 0 784 624" xml:space="preserve">
<path fill="#000000" opacity="1.000000" stroke="none" 
	d="
M495.108643,325.989410 
	C503.138794,342.821289 507.697784,360.090240 506.044250,378.451752 
	C504.355835,397.200500 496.790863,413.796204 485.228363,428.457062 
	C470.589874,447.018158 452.516998,461.551300 431.572662,472.512634 
	C430.536469,473.054901 429.557648,473.741913 428.143951,473.122894 
	C426.374481,470.916565 428.328125,469.200226 429.216797,467.411743 
	C434.007568,457.770172 433.777405,448.343842 428.623322,438.933502 
	C419.652008,442.268311 416.428131,440.462006 414.290100,431.237793 
	C413.992004,429.951752 413.752441,428.586395 413.848938,427.284637 
	C415.066284,410.865906 410.393768,395.672089 404.089630,380.867340 
	C401.230164,374.152100 399.574005,367.065674 397.103302,359.688324 
	C393.376495,363.854523 392.340942,368.763489 391.036682,373.412781 
	C387.660706,385.447113 387.097778,397.652618 389.656189,409.957153 
	C390.643616,414.706146 391.115967,419.536987 390.111877,424.326843 
	C389.439026,427.536591 387.947906,430.732361 384.226288,430.856873 
	C380.719757,430.974213 379.242767,428.063538 378.364471,424.994446 
	C378.051025,423.899017 377.598877,422.843323 377.286896,421.981812 
	C376.320862,421.414459 375.723541,421.746307 375.251495,422.225647 
	C366.189301,431.427032 358.099091,450.389374 366.701385,466.919769 
	C367.682495,468.805145 370.295959,470.972168 368.259827,473.169464 
	C366.081207,475.520660 363.202118,473.682037 360.787262,472.825165 
	C326.825012,460.774261 303.801727,437.561981 290.980438,404.056824 
	C284.567352,387.297882 282.217896,369.773651 284.135254,352.097931 
	C285.912231,335.716370 291.348694,320.086182 298.022736,304.979340 
	C298.581726,303.713989 299.419067,302.608093 300.882446,302.454559 
	C302.709747,302.262787 303.412903,303.735077 304.178253,305.026276 
	C305.787903,307.741852 307.138672,310.657776 309.055695,313.135651 
	C315.386627,321.318634 324.237061,321.734009 331.185028,314.091553 
	C340.177521,304.200195 343.131226,291.850067 343.550079,279.075287 
	C344.102783,262.218262 347.424988,246.103012 353.607971,230.496841 
	C354.392365,228.516983 354.960938,226.328461 358.584106,225.581680 
	C359.756622,241.686630 360.073944,257.926727 368.066345,272.498077 
	C365.570618,260.208282 366.594971,247.832230 368.248260,235.746765 
	C371.190247,214.241272 378.664398,194.188904 391.386414,176.333893 
	C397.098114,168.317642 403.425690,160.805954 410.089630,153.578125 
	C411.245728,152.324249 412.475311,150.305649 414.628815,151.510666 
	C416.551361,152.586456 415.590210,154.591797 415.192688,156.062576 
	C410.684509,172.742661 416.785522,187.114594 424.823547,201.086411 
	C428.309967,207.146500 431.666351,213.267471 434.591370,219.630859 
	C440.536072,232.563629 441.477112,245.888245 438.026276,259.598755 
	C432.773499,280.468506 433.286652,301.123413 440.367035,321.511200 
	C442.416687,327.413116 445.466980,332.753845 450.386658,336.780670 
	C459.430084,344.182861 470.516357,341.048340 474.592133,330.184418 
	C477.060272,323.605652 476.903046,316.822693 477.060730,310.006195 
	C477.122040,307.356476 475.295227,303.509216 478.621124,302.387054 
	C481.954315,301.262512 482.908142,305.364685 484.443604,307.514648 
	C488.514374,313.214661 491.735382,319.437042 495.108643,325.989410 
z"/>
</svg>